<?xml version="1.0" encoding="UTF-8"?>
<svg id="_Слой_1" data-name="Слой 1" xmlns="http://www.w3.org/2000/svg" viewBox="0 0 960.25 696.28">
  <defs>
    <style>
      .cls-1 {
        stroke: #fff;
        stroke-width: 4px;
      }

      .cls-1, .cls-2, .cls-3 {
        stroke-miterlimit: 10;
      }

      .cls-4, .cls-3 {
        fill: #fff;
      }

      .cls-2 {
        fill: none;
      }

      .cls-2, .cls-3 {
        stroke: #000;
        stroke-width: 22px;
      }
    </style>
  </defs>
  <path d="M825.9,576.28H159.9V171.49c0-22.21,18-40.21,40.21-40.21H785.69c22.21,0,40.21,18,40.21,40.21v404.79Z"/>
  <rect class="cls-4" x="200.9" y="194.28" width="584" height="354"/>
  <path d="M159.9,582.28L5.27,676.04c-9.44,5.72-5.38,20.23,5.66,20.23H949.32c10.57,0,14.96-13.52,6.41-19.73l-129.82-94.27H159.9Z"/>
  <line class="cls-1" x1="5.27" y1="676.04" x2="955.73" y2="676.04"/>
  <polygon class="cls-4" points="159.9 606.49 825.9 606.49 869.9 639.28 103.9 639.28 159.9 606.49"/>
  <path class="cls-3" d="M742.8,60.99V331.12c0,25.91-23.92,46.92-53.42,46.92H299.87c-26.73,0-48.4-21.67-48.4-48.4V60.99"/>
  <line class="cls-2" x1="327.43" y1="60.99" x2="664.87" y2="60.99"/>
  <path class="cls-3" d="M668.16,36V316.87c31.57-35.52,72.36-7.24,75.64,14.47V51.8c0-25.81-17.76-40.8-46.72-40.8-13.13,0-28.92,15.13-28.92,25Z"/>
  <g>
    <path d="M360.02,187.06h-12.31v-48.17h16.24c5.81,0,10.45,1.48,13.92,4.43,3.47,2.95,5.2,6.94,5.2,11.95s-1.73,9-5.2,11.95c-3.47,2.95-8.11,4.43-13.92,4.43h-3.94v15.4Zm10.41-31.78c0-1.64-.57-2.92-1.72-3.83-1.15-.91-2.73-1.37-4.75-1.37h-3.94v10.41h3.94c2.02,0,3.6-.46,4.75-1.37,1.15-.91,1.72-2.19,1.72-3.83Z"/>
    <path d="M402.07,187.06h-12.31v-48.17h17.02c5.58,0,10.09,1.38,13.54,4.15,3.45,2.77,5.17,6.42,5.17,10.97,0,2.91-.66,5.46-1.97,7.66-1.31,2.2-3.21,3.91-5.7,5.13l10.48,20.25h-13.22l-8.37-16.81h-4.64v16.81Zm10.76-32.49c0-1.36-.52-2.45-1.55-3.27-1.03-.82-2.41-1.23-4.15-1.23h-5.06v9h5.06c1.73,0,3.12-.41,4.15-1.23,1.03-.82,1.55-1.91,1.55-3.27Z"/>
    <path d="M431.47,162.94c0-7.03,2.4-12.91,7.21-17.65,4.81-4.73,10.77-7.1,17.9-7.1s13.09,2.37,17.9,7.1c4.81,4.74,7.21,10.62,7.21,17.65s-2.39,12.99-7.17,17.72c-4.78,4.74-10.76,7.1-17.93,7.1s-13.15-2.37-17.93-7.1c-4.78-4.73-7.17-10.64-7.17-17.72Zm37.2,0c0-3.75-1.16-6.89-3.48-9.42-2.32-2.53-5.19-3.8-8.61-3.8s-6.29,1.27-8.61,3.8c-2.32,2.53-3.48,5.67-3.48,9.42s1.15,6.96,3.45,9.49c2.3,2.53,5.18,3.8,8.65,3.8s6.35-1.27,8.65-3.8c2.3-2.53,3.45-5.7,3.45-9.49Z"/>
    <path d="M499.11,187.77c-2.81,0-5.46-.55-7.95-1.65-2.49-1.1-4.81-2.75-6.96-4.96l7.66-8.44c1.13,1.17,2.27,2.05,3.45,2.64,1.17,.59,2.39,.88,3.66,.88,1.78,0,3.14-.53,4.08-1.58,.94-1.05,1.41-2.59,1.41-4.61v-31.15h12.66v31.29c0,5.77-1.52,10.14-4.57,13.11-3.05,2.98-7.52,4.47-13.43,4.47Z"/>
    <path d="M557.48,187.06h-31.5v-48.17h31.5v11.18h-18.85v7.03h16.74v11.18h-16.74v7.59h18.85v11.18Z"/>
    <path d="M575.83,163.01c0,3.75,1.17,6.89,3.52,9.42,2.34,2.53,5.23,3.8,8.65,3.8,1.97,0,3.77-.4,5.41-1.2,1.64-.8,3.38-2.11,5.2-3.94l7.81,8.44c-2.72,2.81-5.58,4.89-8.58,6.22-3,1.34-6.28,2-9.84,2-7.17,0-13.16-2.36-17.97-7.07-4.81-4.71-7.21-10.61-7.21-17.69s2.4-12.99,7.21-17.72c4.81-4.73,10.79-7.1,17.97-7.1,3.38,0,6.55,.64,9.53,1.93,2.98,1.29,5.71,3.18,8.19,5.66l-7.67,8.44c-1.55-1.55-3.13-2.68-4.75-3.41-1.62-.73-3.39-1.09-5.31-1.09-3.47,0-6.36,1.27-8.68,3.8-2.32,2.53-3.48,5.7-3.48,9.49Z"/>
    <path d="M622.38,150.08h-13.57v-11.18h39.8v11.18h-13.57v36.99h-12.66v-36.99Z"/>
  </g>
  <path class="cls-3" d="M327.43,36.12V316.99c-31.57-35.52-72.36-7.24-75.64,14.47V51.93c0-25.81,17.76-40.8,46.72-40.8,13.13,0,28.92,15.13,28.92,25Z"/>
  <circle cx="427.95" cy="426.56" r="84.08"/>
  <circle class="cls-4" cx="427.95" cy="426.56" r="48.06"/>
  <polygon points="452.42 350.6 405.25 350.6 411.84 316.87 445.57 316.87 452.42 350.6"/>
  <polygon points="503.31 392.63 470.83 358.43 499.83 339.98 523.06 364.44 503.31 392.63"/>
  <polygon points="502.13 452.91 502.13 405.73 535.87 412.33 535.87 446.06 502.13 452.91"/>
  <polygon points="463.1 499.29 496.46 465.93 515.65 494.45 491.8 518.3 463.1 499.29"/>
  <polygon points="404.24 502.51 451.4 503.72 443.94 537.28 410.22 536.41 404.24 502.51"/>
  <polygon points="352.58 392.81 385.07 358.61 356.07 340.16 332.83 364.62 352.58 392.81"/>
  <polygon points="353.76 453.09 353.76 405.91 320.03 412.51 320.03 446.24 353.76 453.09"/>
  <polygon points="392.79 499.47 359.43 466.11 340.24 494.63 364.1 518.48 392.79 499.47"/>
  <circle cx="585.54" cy="334.82" r="52.8"/>
  <circle class="cls-4" cx="585.54" cy="334.82" r="30.18"/>
  <polygon points="600.91 287.12 571.29 287.12 575.43 265.94 596.61 265.94 600.91 287.12"/>
  <polygon points="632.87 313.51 612.47 292.03 630.68 280.45 645.27 295.81 632.87 313.51"/>
  <polygon points="632.13 351.36 632.13 321.74 653.31 325.88 653.31 347.06 632.13 351.36"/>
  <polygon points="607.62 380.48 628.57 359.54 640.62 377.44 625.64 392.42 607.62 380.48"/>
  <polygon points="570.66 382.51 600.27 383.27 595.59 404.34 574.41 403.79 570.66 382.51"/>
  <polygon points="538.22 313.63 558.62 292.15 540.41 280.56 525.82 295.92 538.22 313.63"/>
  <polygon points="538.96 351.47 538.96 321.85 517.78 325.99 517.78 347.17 538.96 351.47"/>
  <polygon points="563.47 380.6 542.52 359.65 530.47 377.56 545.45 392.53 563.47 380.6"/>
  <circle cx="470.77" cy="266.31" r="36.84"/>
  <circle class="cls-4" cx="470.77" cy="266.31" r="21.06"/>
  <polygon points="481.49 233.03 460.82 233.03 463.71 218.25 478.49 218.25 481.49 233.03"/>
  <polygon points="503.79 251.45 489.55 236.46 502.26 228.38 512.44 239.1 503.79 251.45"/>
  <polygon points="503.27 277.85 503.27 257.19 518.05 260.08 518.05 274.85 503.27 277.85"/>
  <polygon points="486.17 298.17 500.78 283.56 509.19 296.05 498.74 306.5 486.17 298.17"/>
  <polygon points="460.38 299.59 481.04 300.12 477.77 314.82 463 314.44 460.38 299.59"/>
  <polygon points="437.75 251.53 451.98 236.54 439.27 228.46 429.1 239.17 437.75 251.53"/>
  <polygon points="438.26 277.93 438.26 257.27 423.49 260.15 423.49 274.93 438.26 277.93"/>
  <polygon points="455.37 298.25 440.75 283.64 432.34 296.13 442.79 306.58 455.37 298.25"/>
</svg>